<?xml version="1.0" encoding="utf-8"?>
<!-- Generator: Adobe Illustrator 16.0.0, SVG Export Plug-In . SVG Version: 6.00 Build 0)  -->
<!DOCTYPE svg PUBLIC "-//W3C//DTD SVG 1.1//EN" "http://www.w3.org/Graphics/SVG/1.1/DTD/svg11.dtd">
<svg version="1.1" id="レイヤー_1" xmlns="http://www.w3.org/2000/svg" xmlns:xlink="http://www.w3.org/1999/xlink" x="0px"
	 y="0px" width="595.28px" height="841.89px" viewBox="0 0 595.28 841.89" enable-background="new 0 0 595.28 841.89"
	 xml:space="preserve">
<g>
	<g>
		<path fill="none" stroke="#FFFFFF" stroke-width="18" stroke-miterlimit="10" d="M87.292,173.058c19.34,0,19.34,8,38.68,8
			c19.338,0,19.338-8,38.675-8c19.34,0,19.34,8,38.68,8c19.341,0,19.341-8,38.681-8c19.342,0,19.342,8,38.684,8
			c19.34,0,19.34-8,38.681-8c19.344,0,19.344,8,38.688,8c19.343,0,19.343-8,38.687-8"/>
	</g>
	<g>
		<path fill="none" stroke="#231815" stroke-miterlimit="10" d="M87.135,163.5c19.34,0,19.34,8,38.681,8c19.338,0,19.338-8,38.676-8
			c19.34,0,19.34,8,38.681,8c19.341,0,19.341-8,38.682-8c19.342,0,19.342,8,38.684,8c19.341,0,19.341-8,38.682-8
			c19.344,0,19.344,8,38.688,8s19.344-8,38.688-8"/>
	</g>
	<g>
		<path fill="none" stroke="#231815" stroke-miterlimit="10" d="M87.135,182.788c19.34,0,19.34,8,38.681,8
			c19.338,0,19.338-8,38.676-8c19.34,0,19.34,8,38.681,8c19.341,0,19.341-8,38.682-8c19.342,0,19.342,8,38.684,8
			c19.341,0,19.341-8,38.682-8c19.344,0,19.344,8,38.688,8s19.344-8,38.688-8"/>
	</g>
</g>
<g>
	<g>
		<path fill="none" stroke="#FFFFFF" stroke-width="18" stroke-miterlimit="10" d="M138.292,320.058c9.67,0,9.67,8,19.341,8
			c9.669,0,9.669-8,19.339-8c9.67,0,9.67,8,19.34,8c9.669,0,9.669-8,19.339-8c9.668,0,9.668,8,19.335,8c9.669,0,9.669-8,19.338-8
			c9.67,0,9.67,8,19.341,8c9.669,0,9.669-8,19.338-8c9.67,0,9.67,8,19.34,8s9.67-8,19.34-8c9.671,0,9.671,8,19.343,8
			s9.672-8,19.343-8s9.671,8,19.342,8c9.672,0,9.672-8,19.344-8c9.673,0,9.673,8,19.347,8c9.673,0,9.673-8,19.346-8"/>
	</g>
	<g>
		<path fill="none" stroke="#231815" stroke-miterlimit="10" d="M138.135,310.5c9.67,0,9.67,8,19.341,8c9.669,0,9.669-8,19.339-8
			s9.67,8,19.34,8c9.67,0,9.67-8,19.34-8c9.668,0,9.668,8,19.336,8c9.669,0,9.669-8,19.338-8c9.67,0,9.67,8,19.341,8
			c9.669,0,9.669-8,19.338-8s9.669,8,19.339,8c9.671,0,9.671-8,19.341-8c9.672,0,9.672,8,19.343,8s9.671-8,19.343-8
			s9.672,8,19.343,8c9.672,0,9.672-8,19.344-8c9.673,0,9.673,8,19.347,8s9.674-8,19.347-8"/>
	</g>
	<g>
		<path fill="none" stroke="#231815" stroke-miterlimit="10" d="M138.135,329.788c9.67,0,9.67,8,19.341,8c9.669,0,9.669-8,19.339-8
			s9.67,8,19.34,8c9.67,0,9.67-8,19.34-8c9.668,0,9.668,8,19.336,8c9.669,0,9.669-8,19.338-8c9.67,0,9.67,8,19.341,8
			c9.669,0,9.669-8,19.338-8s9.669,8,19.339,8c9.671,0,9.671-8,19.341-8c9.672,0,9.672,8,19.343,8s9.671-8,19.343-8
			s9.672,8,19.343,8c9.672,0,9.672-8,19.344-8c9.673,0,9.673,8,19.347,8s9.674-8,19.347-8"/>
	</g>
</g>
</svg>
